<?xml version="1.0" encoding="UTF-8"?>
<!DOCTYPE svg PUBLIC "-//W3C//DTD SVG 1.1//EN" "http://www.w3.org/Graphics/SVG/1.1/DTD/svg11.dtd">
<svg xmlns="http://www.w3.org/2000/svg" version="1.1" width="685px" height="315px" style="shape-rendering:geometricPrecision; text-rendering:geometricPrecision; image-rendering:optimizeQuality; fill-rule:evenodd; clip-rule:evenodd" xmlns:xlink="http://www.w3.org/1999/xlink">
<g><path style="opacity:0.954" fill="#f25e00" d="M 336.5,-0.5 C 338.167,-0.5 339.833,-0.5 341.5,-0.5C 343.014,23.4483 344.181,47.4483 345,71.5C 347.119,99.6424 353.786,126.642 365,152.5C 371.163,167.008 381.83,176.008 397,179.5C 407.636,177.881 415.97,172.547 422,163.5C 431.465,147.998 434.131,131.332 430,113.5C 428.333,104.988 423.833,98.4878 416.5,94C 400.422,90.4613 389.922,96.628 385,112.5C 382.329,120.821 383.163,128.654 387.5,136C 391.5,139.333 395.5,139.333 399.5,136C 401.393,133.697 403.393,131.53 405.5,129.5C 406.944,140.562 402.111,146.896 391,148.5C 379.204,147.044 371.204,140.711 367,129.5C 360.553,106.159 368.053,88.9923 389.5,78C 416.226,70.461 437.06,78.2943 452,101.5C 466.924,140.798 455.758,169.964 418.5,189C 373.873,200.933 344.706,184.767 331,140.5C 319.519,98.9648 317.519,56.9648 325,14.5C 327.231,8.12283 331.064,3.12283 336.5,-0.5 Z"/></g>
<g><path style="opacity:0.953" fill="#f25e00" d="M -0.5,129.5 C -0.5,127.167 -0.5,124.833 -0.5,122.5C 5.04103,110.777 13.3744,101.277 24.5,94C 65.14,69.8363 109.14,56.503 156.5,54C 172.5,53.3333 188.5,53.3333 204.5,54C 209.21,54.3751 213.877,55.0418 218.5,56C 222.988,56.7333 223.988,58.7333 221.5,62C 201.517,63.3331 181.517,64.6664 161.5,66C 130.334,69.334 100.667,77.834 72.5,91.5C 70.9978,128.156 76.3311,163.823 88.5,198.5C 88.1519,200.697 87.1519,202.53 85.5,204C 81.0989,207.117 76.2656,209.284 71,210.5C 69.1878,210.507 67.6878,209.84 66.5,208.5C 53.5976,175.018 48.0976,140.351 50,104.5C 41.7051,110.461 34.3717,117.461 28,125.5C 23.5561,133.717 22.3894,142.384 24.5,151.5C 11.7309,149.057 3.39759,141.723 -0.5,129.5 Z"/></g>
<g><path style="opacity:0.954" fill="#f25e00" d="M 684.5,130.5 C 684.5,134.5 684.5,138.5 684.5,142.5C 678.693,174.468 659.526,192.135 627,195.5C 593.145,193.305 571.479,175.971 562,143.5C 561.333,136.5 561.333,129.5 562,122.5C 563.109,118.281 564.775,114.281 567,110.5C 568.912,109.308 570.912,108.308 573,107.5C 583.966,87.5058 600.966,77.1725 624,76.5C 657.313,79.9888 677.48,97.9888 684.5,130.5 Z M 586.5,148.5 C 590.241,152.218 594.241,155.718 598.5,159C 601.063,160.079 603.729,160.579 606.5,160.5C 606.66,158.801 606.494,157.134 606,155.5C 591.331,139.479 589.664,122.145 601,103.5C 620.079,86.3388 637.079,88.3388 652,109.5C 663.531,133.219 660.031,154.386 641.5,173C 630.083,181.217 618.416,181.55 606.5,174C 596.831,167.814 590.164,159.314 586.5,148.5 Z"/></g>
<g><path style="opacity:0.96" fill="#f25e00" d="M 531.5,80.5 C 538.016,80.0105 543.183,82.3439 547,87.5C 541.628,113.812 545.294,138.812 558,162.5C 561.642,167.642 565.475,172.642 569.5,177.5C 567.395,180.717 564.395,182.05 560.5,181.5C 553.792,180.709 547.459,178.709 541.5,175.5C 520.212,190.817 499.712,189.817 480,172.5C 467.582,155.402 464.582,136.736 471,116.5C 481.601,93.703 499.267,84.0363 524,87.5C 526.332,85.0022 528.832,82.6689 531.5,80.5 Z M 507.5,105.5 C 512.74,104.538 516.907,106.205 520,110.5C 525.232,121.243 526.899,132.576 525,144.5C 524.026,152.947 520.526,160.114 514.5,166C 507.968,168.823 503.135,166.989 500,160.5C 492.52,143.518 493.187,126.852 502,110.5C 503.73,108.598 505.563,106.931 507.5,105.5 Z"/></g>
<g><path style="opacity:0.958" fill="#f25e00" d="M 267.5,90.5 C 283.813,90.2393 296.979,96.5726 307,109.5C 322.558,132.397 329.058,157.73 326.5,185.5C 321.382,186.111 316.715,184.944 312.5,182C 304.345,174.865 298.845,166.032 296,155.5C 293.443,144.268 291.443,132.934 290,121.5C 287.53,114.931 283.363,113.765 277.5,118C 267.227,129.254 263.56,142.42 266.5,157.5C 248.005,157.342 234.171,149.342 225,133.5C 219.224,140.478 215.557,148.478 214,157.5C 212.516,167.049 212.016,176.549 212.5,186C 198.495,184.557 192.828,176.724 195.5,162.5C 194.943,148.059 198.443,134.726 206,122.5C 214.987,111.201 225.154,109.868 236.5,118.5C 241.215,110.614 246.881,103.448 253.5,97C 257.877,93.9748 262.544,91.8081 267.5,90.5 Z"/></g>
<g><path style="opacity:0.955" fill="#f25e00" d="M 151.5,112.5 C 156.618,111.889 161.285,113.056 165.5,116C 184.882,129.146 190.382,146.646 182,168.5C 172.668,182.359 159.501,189.359 142.5,189.5C 123.561,188.449 108.394,180.449 97,165.5C 90.7286,156.079 88.3952,145.746 90,134.5C 92.0246,129.855 95.5246,128.355 100.5,130C 103.548,130.606 106.048,132.106 108,134.5C 109.023,140.793 109.689,147.126 110,153.5C 111.609,165.123 118.109,170.956 129.5,171C 145.267,162.281 152.934,148.781 152.5,130.5C 152.051,125.803 151.384,121.137 150.5,116.5C 150.623,115.075 150.957,113.742 151.5,112.5 Z"/></g>
<g><path style="opacity:0.924" fill="#f25e00" d="M 374.5,215.5 C 396.895,215.336 419.228,216.336 441.5,218.5C 441.011,223.314 439.011,227.48 435.5,231C 434,231.167 432.5,231.333 431,231.5C 387.841,226.499 344.674,226.499 301.5,231.5C 301.047,227.574 302.38,224.408 305.5,222C 328.555,218.78 351.555,216.614 374.5,215.5 Z"/></g>
<g><path style="opacity:0.74" fill="#f25e00" d="M 243.5,254.5 C 247.054,254.15 250.388,254.816 253.5,256.5C 256.489,259.982 256.156,262.982 252.5,265.5C 251.354,264.855 250.354,264.022 249.5,263C 251.833,257.667 250.167,255.667 244.5,257C 239.167,264.333 239.167,271.667 244.5,279C 249.491,280.18 252.491,278.346 253.5,273.5C 254.675,273.281 255.675,273.614 256.5,274.5C 253.765,280.7 249.099,282.866 242.5,281C 235.466,276.203 233.3,269.703 236,261.5C 237.767,258.228 240.267,255.895 243.5,254.5 Z"/></g>
<g><path style="opacity:0.741" fill="#f25e00" d="M 489.5,254.5 C 490.496,254.414 491.329,254.748 492,255.5C 494.333,261.5 496.667,267.5 499,273.5C 499.911,276.576 501.744,278.909 504.5,280.5C 500.833,281.833 497.167,281.833 493.5,280.5C 495.514,276.19 494.18,273.857 489.5,273.5C 484.196,273.782 482.863,276.115 485.5,280.5C 482.833,281.833 480.167,281.833 477.5,280.5C 479.342,279.158 480.842,277.491 482,275.5C 484.606,268.514 487.106,261.514 489.5,254.5 Z M 488.5,263.5 C 490.33,265.826 491.663,268.493 492.5,271.5C 490.235,272.647 487.902,272.814 485.5,272C 486.929,269.31 487.929,266.477 488.5,263.5 Z"/></g>
<g><path style="opacity:0.771" fill="#f25e00" d="M 274.5,256.5 C 281.655,255.345 288.988,255.178 296.5,256C 295.167,257.667 295.167,259.333 296.5,261C 292.93,262.105 290.93,260.771 290.5,257C 283.161,255.853 280.494,259.019 282.5,266.5C 284.929,266.415 286.929,265.415 288.5,263.5C 289.652,266.106 289.818,268.773 289,271.5C 287.13,269.781 284.963,268.781 282.5,268.5C 282.249,271.909 282.583,275.242 283.5,278.5C 285.765,279.647 288.098,279.814 290.5,279C 291.267,276.947 292.6,275.447 294.5,274.5C 295.167,274.833 295.833,275.167 296.5,275.5C 295.167,277.167 295.167,278.833 296.5,280.5C 289.167,281.833 281.833,281.833 274.5,280.5C 275.325,279.614 276.325,279.281 277.5,279.5C 277.666,272.159 277.5,264.826 277,257.5C 276.329,256.748 275.496,256.414 274.5,256.5 Z"/></g>
<g><path style="opacity:0.786" fill="#f25e00" d="M 315.5,256.5 C 320.65,255.349 325.984,255.183 331.5,256C 336.115,257.124 337.615,259.957 336,264.5C 334.992,266.259 333.492,267.426 331.5,268C 335.166,270.407 336.833,273.907 336.5,278.5C 338.942,278.354 339.609,279.187 338.5,281C 336.5,281.667 334.5,281.667 332.5,281C 331.071,277.611 329.904,274.111 329,270.5C 327.556,268.845 325.722,268.178 323.5,268.5C 323.335,271.85 323.502,275.183 324,278.5C 324.925,279.047 325.758,279.713 326.5,280.5C 322.833,281.833 319.167,281.833 315.5,280.5C 316.242,279.713 317.075,279.047 318,278.5C 318.667,271.833 318.667,265.167 318,258.5C 317.292,257.619 316.458,256.953 315.5,256.5 Z M 323.5,256.5 C 327.357,256.617 330.024,258.45 331.5,262C 330.164,265.832 327.497,267.332 323.5,266.5C 323.5,263.167 323.5,259.833 323.5,256.5 Z"/></g>
<g><path style="opacity:0.772" fill="#f25e00" d="M 354.5,256.5 C 357.976,255.357 361.642,255.19 365.5,256C 364.643,256.689 363.977,257.522 363.5,258.5C 365.431,263.127 367.265,267.794 369,272.5C 371.11,267.945 372.944,263.278 374.5,258.5C 374.023,257.522 373.357,256.689 372.5,256C 375.167,255.333 377.833,255.333 380.5,256C 378.274,257.227 376.774,259.061 376,261.5C 373.327,268.019 371.16,274.686 369.5,281.5C 368.325,281.719 367.325,281.386 366.5,280.5C 363.569,273.54 360.736,266.54 358,259.5C 356.961,258.29 355.794,257.29 354.5,256.5 Z"/></g>
<g><path style="opacity:0.77" fill="#f25e00" d="M 397.5,256.5 C 404.655,255.345 411.988,255.178 419.5,256C 418.167,257.667 418.167,259.333 419.5,261C 415.93,262.105 413.93,260.771 413.5,257C 406.161,255.853 403.494,259.019 405.5,266.5C 407.929,266.415 409.929,265.415 411.5,263.5C 412.652,266.106 412.818,268.773 412,271.5C 410.13,269.781 407.963,268.781 405.5,268.5C 405.249,271.909 405.583,275.242 406.5,278.5C 408.765,279.647 411.098,279.814 413.5,279C 414.267,276.947 415.6,275.447 417.5,274.5C 418.167,274.833 418.833,275.167 419.5,275.5C 418.167,277.167 418.167,278.833 419.5,280.5C 412.167,281.833 404.833,281.833 397.5,280.5C 398.325,279.614 399.325,279.281 400.5,279.5C 400.666,272.159 400.5,264.826 400,257.5C 399.329,256.748 398.496,256.414 397.5,256.5 Z"/></g>
<g><path style="opacity:0.759" fill="#f25e00" d="M 440.5,255.5 C 446.868,255.17 453.202,255.504 459.5,256.5C 455.031,264.133 450.365,271.633 445.5,279C 448.554,279.821 451.554,279.655 454.5,278.5C 455.07,275.216 456.737,274.216 459.5,275.5C 458.167,277.167 458.167,278.833 459.5,280.5C 452.524,281.664 445.524,281.831 438.5,281C 443.25,272.832 448.25,264.832 453.5,257C 451.167,256.333 448.833,256.333 446.5,257C 445.32,258.896 443.82,260.396 442,261.5C 441.5,261.167 441,260.833 440.5,260.5C 441.535,258.872 441.535,257.205 440.5,255.5 Z"/></g>
<g><path style="opacity:0.649" fill="#f25e00" d="M 294.5,314.5 C 291.833,314.5 289.167,314.5 286.5,314.5C 288.329,311.491 287.496,309.825 284,309.5C 282.393,309.769 281.226,310.603 280.5,312C 281.756,312.417 282.423,313.25 282.5,314.5C 280.5,314.5 278.5,314.5 276.5,314.5C 279.503,308.486 282.503,302.486 285.5,296.5C 287.997,302.828 290.997,308.828 294.5,314.5 Z M 283.5,303.5 C 284.601,304.848 285.601,306.348 286.5,308C 285.056,308.781 283.723,308.614 282.5,307.5C 283.246,306.264 283.579,304.93 283.5,303.5 Z"/></g>
<g><path style="opacity:0.651" fill="#f25e00" d="M 371.5,303.5 C 376.86,306.525 377.527,310.192 373.5,314.5C 371.167,314.5 368.833,314.5 366.5,314.5C 363.6,313.072 362.933,310.906 364.5,308C 365.448,307.517 366.448,307.351 367.5,307.5C 367.151,310.045 367.984,312.045 370,313.5C 371.299,312.91 372.132,311.91 372.5,310.5C 369.838,308.068 367.005,305.735 364,303.5C 362.529,298.967 364.196,296.633 369,296.5C 373.142,296.64 375.142,298.64 375,302.5C 373.989,303.337 372.822,303.67 371.5,303.5 Z M 371.5,303.5 C 364.971,301.71 364.971,300.043 371.5,298.5C 371.5,300.167 371.5,301.833 371.5,303.5 Z"/></g>
<g><path style="opacity:0.649" fill="#f25e00" d="M 398.5,314.5 C 395.833,314.5 393.167,314.5 390.5,314.5C 392.329,311.491 391.496,309.825 388,309.5C 386.393,309.769 385.226,310.603 384.5,312C 385.756,312.417 386.423,313.25 386.5,314.5C 384.5,314.5 382.5,314.5 380.5,314.5C 383.503,308.486 386.503,302.486 389.5,296.5C 391.997,302.828 394.997,308.828 398.5,314.5 Z M 387.5,303.5 C 388.601,304.848 389.601,306.348 390.5,308C 389.056,308.781 387.723,308.614 386.5,307.5C 387.246,306.264 387.579,304.93 387.5,303.5 Z"/></g>
<g><path style="opacity:0.661" fill="#f25e00" d="M 440.5,314.5 C 437.833,314.5 435.167,314.5 432.5,314.5C 434.329,311.491 433.496,309.825 430,309.5C 428.393,309.769 427.226,310.603 426.5,312C 427.756,312.417 428.423,313.25 428.5,314.5C 426.5,314.5 424.5,314.5 422.5,314.5C 425.489,308.56 428.489,302.56 431.5,296.5C 434.028,302.889 437.028,308.889 440.5,314.5 Z M 429.5,303.5 C 430.947,304.622 431.947,306.122 432.5,308C 431.056,308.781 429.723,308.614 428.5,307.5C 429.246,306.264 429.579,304.93 429.5,303.5 Z"/></g>
<g><path style="opacity:0.707" fill="#f25e00" d="M 314.5,314.5 C 312.833,314.5 311.167,314.5 309.5,314.5C 308.992,312.135 308.325,309.801 307.5,307.5C 306.675,306.614 305.675,306.281 304.5,306.5C 304.107,309.513 304.774,312.18 306.5,314.5C 303.833,314.5 301.167,314.5 298.5,314.5C 299.623,311.683 300.29,308.683 300.5,305.5C 300.426,302.713 299.76,300.213 298.5,298C 302.5,297.333 306.5,297.333 310.5,298C 313.093,300.479 313.093,302.979 310.5,305.5C 311.836,308.508 313.169,311.508 314.5,314.5 Z M 304.5,298.5 C 308.013,299.028 309.013,300.862 307.5,304C 306.552,304.483 305.552,304.649 304.5,304.5C 304.5,302.5 304.5,300.5 304.5,298.5 Z"/></g>
<g><path style="opacity:0.711" fill="#f25e00" d="M 332.5,314.5 C 330.167,314.5 327.833,314.5 325.5,314.5C 326.4,309.228 326.733,303.895 326.5,298.5C 324.315,298.888 322.482,299.888 321,301.5C 320.5,301.333 320,301.167 319.5,301C 320.833,300 320.833,299 319.5,298C 325.491,297.501 331.491,297.334 337.5,297.5C 337.5,298.833 337.5,300.167 337.5,301.5C 335.328,300.199 332.995,299.199 330.5,298.5C 330.057,304.058 330.724,309.391 332.5,314.5 Z"/></g>
<g><path style="opacity:0.719" fill="#f25e00" d="M 357.5,314.5 C 352.833,314.5 348.167,314.5 343.5,314.5C 345.481,309.75 345.981,304.75 345,299.5C 344.5,299 344,298.5 343.5,298C 348.167,297.333 352.833,297.333 357.5,298C 356.359,298.741 356.359,299.575 357.5,300.5C 357,300.833 356.5,301.167 356,301.5C 354.249,298.647 351.916,297.98 349,299.5C 347.99,304.095 349.157,305.095 352.5,302.5C 353.833,304.5 353.833,306.5 352.5,308.5C 349.157,305.905 347.99,306.905 349,311.5C 351.916,313.02 354.249,312.353 356,309.5C 356.5,309.833 357,310.167 357.5,310.5C 356.637,311.726 356.637,313.06 357.5,314.5 Z"/></g>
<g><path style="opacity:0.717" fill="#f25e00" d="M 416.5,314.5 C 415.833,314.5 415.167,314.5 414.5,314.5C 412.251,310.402 409.751,306.402 407,302.5C 406.151,306.733 406.651,310.733 408.5,314.5C 406.5,314.5 404.5,314.5 402.5,314.5C 403.623,311.683 404.29,308.683 404.5,305.5C 404.426,302.713 403.76,300.213 402.5,298C 404.769,297.242 406.936,297.409 409,298.5C 410.752,301.672 412.752,304.672 415,307.5C 416.004,304.007 415.504,300.841 413.5,298C 415.167,297.333 416.833,297.333 418.5,298C 418,298.5 417.5,299 417,299.5C 416.501,304.489 416.334,309.489 416.5,314.5 Z"/></g>
<g><path style="opacity:0.683" fill="#f25e00" d="M 458.5,314.5 C 453.833,314.5 449.167,314.5 444.5,314.5C 446.065,311.81 446.731,308.81 446.5,305.5C 446.426,302.713 445.76,300.213 444.5,298C 447.167,297.333 449.833,297.333 452.5,298C 450.593,302.518 449.926,307.352 450.5,312.5C 453.408,312.738 455.742,311.738 457.5,309.5C 458.452,311.045 458.785,312.712 458.5,314.5 Z"/></g>
</svg>
